<?xml version="1.0" encoding="utf-8"?>
<!-- Generator: Adobe Illustrator 25.2.1, SVG Export Plug-In . SVG Version: 6.00 Build 0)  -->
<svg version="1.1" id="Layer_1" xmlns="http://www.w3.org/2000/svg" xmlns:xlink="http://www.w3.org/1999/xlink" x="0px" y="0px"
	 viewBox="0 0 106.7 23.8" style="enable-background:new 0 0 106.7 23.8;" xml:space="preserve">
<style type="text/css">
	.st0{fill:#E70000;}
	.st1{fill:#FEFEFE;}
	.st2{fill:#2D2A26;}
</style>
<path class="st0" d="M33.3,3.7c-0.4-1.5-1.5-2.6-3-3C27.6,0,17,0,17,0S6.4,0,3.7,0.7c-1.5,0.4-2.6,1.5-3,3C0,6.4,0,11.9,0,11.9
	s0,5.5,0.7,8.2c0.4,1.5,1.5,2.6,3,3C6.4,23.8,17,23.8,17,23.8s10.6,0,13.3-0.7c1.5-0.4,2.6-1.5,3-3c0.7-2.7,0.7-8.2,0.7-8.2
	S34,6.4,33.3,3.7z"/>
<polygon class="st1" points="13.6,17 22.4,11.9 13.6,6.8 "/>
<path class="st2" d="M49.4,21.6c-0.7-0.5-1.2-1.3-1.4-2.1c-0.3-1.2-0.5-2.5-0.4-3.8v-2.2c0-1.3,0.1-2.6,0.5-3.9
	c0.2-0.9,0.8-1.6,1.5-2.1c0.8-0.5,1.8-0.7,2.7-0.7c1.1,0,2,0.2,2.6,0.7c0.7,0.5,1.2,1.3,1.5,2.1c0.3,1.3,0.5,2.6,0.5,3.9v2.2
	c0,1.3-0.1,2.6-0.5,3.8c-0.2,0.9-0.7,1.6-1.5,2.1c-0.7,0.4-1.6,0.7-2.7,0.7S50,22.1,49.4,21.6z M53.1,19.3c0.2-0.5,0.3-1.3,0.3-2.4
	v-4.7c0-1.1-0.1-1.9-0.3-2.3c-0.1-0.4-0.5-0.8-1-0.7c-0.5,0-0.8,0.3-1,0.7c-0.2,0.8-0.3,1.6-0.3,2.3v4.6c0,1.1,0.1,1.9,0.3,2.4
	c0.1,0.4,0.5,0.7,1,0.7C52.6,20.1,53,19.8,53.1,19.3z"/>
<path class="st2" d="M101,15.8v0.8c0,0.7,0,1.4,0.1,2.2c0,0.4,0.1,0.7,0.4,1c0.2,0.2,0.5,0.4,0.8,0.3c0.4,0,0.8-0.2,1-0.6
	c0.2-0.4,0.3-1,0.3-1.9l2.9,0.2c0,0.2,0,0.4,0,0.5c0,1.4-0.4,2.4-1.1,3.1c-0.7,0.7-1.8,1-3.2,1c-1.7,0-2.8-0.5-3.5-1.6
	c-0.7-1-1-2.6-1-4.8v-2.6c0-2.2,0.3-3.9,1-4.9c0.7-1,1.9-1.5,3.5-1.5c1.2,0,2,0.2,2.7,0.6c0.7,0.5,1.1,1.2,1.3,2
	c0.3,1.2,0.4,2.5,0.4,3.7v2.6L101,15.8z M101.5,9.5c-0.2,0.3-0.3,0.7-0.3,1c-0.1,0.7-0.1,1.4-0.1,2.2v1.1h2.5v-1.1
	c0-0.7,0-1.5-0.1-2.2c0-0.4-0.1-0.7-0.4-1c-0.2-0.2-0.5-0.3-0.8-0.3C102,9.1,101.7,9.3,101.5,9.5z"/>
<path class="st2" d="M41.2,15.5L37.4,1.7h3.3l1.3,6.3c0.3,1.5,0.6,2.9,0.8,3.9h0.1c0.1-0.8,0.4-2.1,0.8-3.9L45,1.7h3.3l-3.9,13.8
	v6.6h-3.3V15.5z"/>
<path class="st2" d="M67.6,7.2v14.9H65l-0.3-1.8h-0.1c-0.7,1.4-1.8,2.1-3.2,2.1c-1,0-1.7-0.3-2.2-1c-0.5-0.6-0.7-1.7-0.7-3V7.2h3.4
	v10.9c0,0.5,0,1,0.2,1.4c0.1,0.3,0.4,0.4,0.7,0.4c0.3,0,0.6-0.1,0.8-0.3c0.3-0.2,0.5-0.4,0.6-0.7V7.2H67.6z"/>
<path class="st2" d="M84.9,7.2v14.9h-2.6L82,20.3h-0.1c-0.7,1.4-1.8,2.1-3.2,2.1c-1,0-1.7-0.3-2.2-1c-0.5-0.6-0.7-1.7-0.7-3V7.2h3.4
	v10.9c0,0.5,0,1,0.2,1.4c0.1,0.3,0.4,0.4,0.7,0.4c0.3,0,0.6-0.1,0.8-0.3c0.3-0.2,0.5-0.4,0.6-0.7V7.2H84.9z"/>
<path class="st2" d="M76.8,4.4h-3.3v17.7h-3.3V4.4h-3.3V1.7h10V4.4z"/>
<path class="st2" d="M96,9.6c-0.2-0.9-0.5-1.6-1-2c-0.5-0.4-1.2-0.7-1.9-0.6c-0.6,0-1.2,0.2-1.7,0.5c-0.5,0.3-1,0.8-1.2,1.4h0V0.9
	h-3.2v21.2h2.8l0.3-1.4h0.1c0.3,0.5,0.7,0.9,1.2,1.2c0.5,0.3,1.1,0.4,1.7,0.4c1.1,0,2.1-0.6,2.5-1.6c0.5-1,0.8-2.7,0.8-4.9v-2.4
	C96.3,12.2,96.2,10.9,96,9.6z M92.9,15.6c0,0.9,0,1.7-0.1,2.6c0,0.5-0.2,0.9-0.5,1.3c-0.2,0.3-0.5,0.4-0.8,0.4
	c-0.3,0-0.5-0.1-0.8-0.2c-0.2-0.1-0.4-0.3-0.6-0.6v-8.5c0.1-0.4,0.3-0.7,0.6-1c0.2-0.2,0.6-0.4,0.9-0.4c0.3,0,0.6,0.1,0.8,0.4
	c0.2,0.4,0.4,0.9,0.4,1.3c0.1,0.9,0.1,1.8,0.1,2.7L92.9,15.6z"/>
</svg>
