<?xml version="1.0" encoding="utf-8"?>
<!-- Generator: Adobe Illustrator 23.0.3, SVG Export Plug-In . SVG Version: 6.00 Build 0)  -->
<svg version="1.1" id="レイヤー_1" xmlns="http://www.w3.org/2000/svg" xmlns:xlink="http://www.w3.org/1999/xlink" x="0px"
	 y="0px" viewBox="0 0 170 54" style="enable-background:new 0 0 170 54;" xml:space="preserve">
<style type="text/css">
	.st0{fill:#231815;}
	.st1{fill:#111A38;}
</style>
<g>
	<path class="st0" d="M3.73,48.94l-1.18,0.43v3.08c0,0.74-0.34,0.85-1.7,0.83c-0.03-0.16-0.13-0.45-0.22-0.63
		c0.48,0.01,0.92,0.01,1.05,0.01c0.13-0.01,0.19-0.05,0.19-0.19V49.6c-0.48,0.17-0.92,0.33-1.27,0.44c0,0.08-0.05,0.14-0.12,0.16
		L0.2,49.4c0.46-0.12,1.04-0.3,1.67-0.5v-2.39H0.32v-0.64h1.55V43.8l0.88,0.05c-0.01,0.08-0.06,0.12-0.2,0.14v1.87h1.17v0.64H2.55
		v2.18l1.1-0.35L3.73,48.94z M8.6,48.26l0.46,0.2c-0.02,0.05-0.06,0.07-0.09,0.1c-0.39,1.2-1.04,2.14-1.86,2.9
		c0.76,0.56,1.69,0.98,2.76,1.22c-0.16,0.14-0.36,0.42-0.46,0.61C8.3,53,7.35,52.55,6.56,51.91C5.69,52.55,4.69,53,3.64,53.29
		c-0.07-0.17-0.24-0.46-0.38-0.6c1-0.24,1.96-0.65,2.79-1.25C5.39,50.79,4.88,50,4.53,49.07l0.52-0.15h-0.9v-0.63h4.33L8.6,48.26z
		 M5.42,44.87v0.4c0,0.89-0.27,2-1.4,2.75c-0.09-0.14-0.34-0.4-0.47-0.5c1.03-0.65,1.22-1.54,1.22-2.26v-1.03h3.37v2.52
		c0,0.22,0.04,0.27,0.24,0.27h0.61c0.2,0,0.24-0.15,0.27-1.26c0.14,0.11,0.41,0.21,0.58,0.27c-0.05,1.27-0.21,1.58-0.78,1.58H8.26
		c-0.61,0-0.8-0.17-0.8-0.86v-1.88H5.42z M5.16,48.92c0.33,0.81,0.81,1.52,1.42,2.1c0.65-0.57,1.17-1.28,1.52-2.1H5.16z"/>
	<path class="st0" d="M23.26,46.79c0.75-0.19,1.83-0.51,2.91-0.82l0.08,0.55c-0.94,0.31-1.92,0.62-2.54,0.81
		c-0.01,0.08-0.06,0.13-0.12,0.16L23.26,46.79z M27.13,52.16c-0.04,0.05-0.12,0.08-0.22,0.06c-0.82,0.41-2.06,0.84-3.07,1.09
		c-0.12-0.13-0.34-0.38-0.47-0.5c1-0.21,2.28-0.6,3.03-1.02L27.13,52.16z M24.1,44.05c0.73,0.19,1.67,0.54,2.18,0.81l-0.31,0.54
		c-0.49-0.28-1.44-0.65-2.18-0.88L24.1,44.05z M24.65,51.65v-4.19h6.71v4.19H24.65z M25.31,47.95v0.75h5.36v-0.75H25.31z
		 M25.31,49.17v0.76h5.36v-0.76H25.31z M25.31,50.39v0.78h5.36v-0.78H25.31z M29.67,45.11c0.25,0.84,0.84,1.61,2.97,1.94
		c-0.13,0.13-0.3,0.39-0.37,0.56c-1.8-0.32-2.55-1.02-2.93-1.8c-0.37,0.78-1.1,1.3-2.69,1.61c-0.05-0.14-0.2-0.38-0.32-0.49
		c1.71-0.31,2.35-0.85,2.59-1.83h-1.17c-0.26,0.32-0.57,0.62-0.94,0.91c-0.12-0.13-0.36-0.28-0.52-0.35
		c0.79-0.54,1.31-1.26,1.58-1.88l0.77,0.11c-0.01,0.07-0.07,0.11-0.19,0.12c-0.08,0.17-0.18,0.36-0.31,0.54h3.72l0.12-0.01
		l0.41,0.05c-0.13,0.39-0.72,1.2-1.07,1.54l-0.55-0.2c0.22-0.21,0.46-0.53,0.66-0.84H29.67z M31.8,53.31
		c-0.66-0.34-1.79-0.77-2.94-1.13l0.56-0.36c1.13,0.35,2.38,0.79,3.14,1.12L31.8,53.31z"/>
	<path class="st0" d="M51.46,47.29c0.2,0.67,0.49,1.32,0.84,1.9c0.67-0.42,1.47-0.99,1.98-1.44l0.62,0.56
		c-0.04,0.04-0.13,0.05-0.21,0.04c-0.52,0.41-1.37,0.95-2.05,1.35c0.74,1.01,1.71,1.79,2.91,2.18c-0.15,0.13-0.35,0.4-0.46,0.58
		c-2.09-0.77-3.44-2.65-4.17-4.97c-0.33,0.25-0.72,0.49-1.12,0.71c1.41,1.01,2.01,2.32,2.01,3.35c0,1.1-0.69,1.78-1.76,1.78
		c-0.26,0-0.58-0.01-0.92-0.03c-0.01-0.17-0.07-0.46-0.18-0.64c0.38,0.03,0.74,0.04,0.96,0.04c0.3,0,0.54-0.02,0.76-0.19
		c0.29-0.18,0.45-0.56,0.45-1.03c0-0.29-0.06-0.6-0.19-0.94c-1.12,0.97-2.88,1.94-4.36,2.43c-0.08-0.17-0.23-0.43-0.37-0.58
		c1.55-0.42,3.43-1.42,4.46-2.4c-0.13-0.21-0.3-0.43-0.48-0.63c-0.88,0.65-2.26,1.36-3.33,1.75c-0.08-0.16-0.23-0.4-0.37-0.54
		c1.08-0.32,2.49-0.98,3.32-1.59c-0.17-0.15-0.37-0.32-0.58-0.47c-0.77,0.36-1.59,0.65-2.37,0.88c-0.08-0.13-0.24-0.4-0.35-0.52
		c1.26-0.32,2.69-0.86,3.69-1.54h-2.42v-0.6h5.85v0.6H51.46z M47.13,45.63v1.38h-0.66V45h3.89v-1.21l0.91,0.06
		c-0.01,0.07-0.07,0.12-0.2,0.13V45h3.95v2.01h-0.69v-1.38H47.13z"/>
	<path class="st0" d="M77.02,47.43c-0.02,0.01-0.05,0.01-0.08,0.01c-0.07,0-0.15-0.02-0.21-0.06c-3.03,0.89-5.78,2.23-5.77,3.6
		c0,0.98,1.08,1.32,2.74,1.32c1.64,0,2.9-0.12,3.62-0.24l0.06,0.75c-0.94,0.12-2.46,0.18-3.66,0.18c-2.02,0-3.49-0.47-3.5-1.97
		c-0.01-1.09,1.08-2.05,2.69-2.88c-0.35-0.62-0.47-1.81-0.47-4.12l1.12,0.09c-0.01,0.13-0.11,0.21-0.32,0.25
		c-0.01,1.79,0.05,2.9,0.34,3.45c0.96-0.45,2.06-0.86,3.19-1.23L77.02,47.43z"/>
	<path class="st0" d="M98.93,49.29h2.47v0.67h-9.38v-0.67h2.43v-2.7h-1.96v-0.67h1.96v-2.02l0.91,0.06
		c-0.01,0.06-0.06,0.11-0.2,0.13v1.83h3.06v-2.02l0.91,0.06c-0.01,0.06-0.06,0.11-0.2,0.13v1.83h2.08v0.67h-2.08V49.29z
		 M95.82,50.89c-0.03,0.06-0.11,0.09-0.22,0.08c-0.67,0.77-1.88,1.73-2.93,2.34c-0.14-0.16-0.4-0.39-0.56-0.51
		c1.05-0.56,2.26-1.47,2.85-2.27L95.82,50.89z M95.16,46.59v2.7h3.06v-2.7H95.16z M100.62,53.29c-0.62-0.62-1.9-1.64-2.89-2.37
		l0.61-0.38c0.97,0.7,2.27,1.68,2.93,2.3L100.62,53.29z"/>
	<path class="st0" d="M117.18,44.56c-0.03,0.11-0.13,0.17-0.34,0.16c-0.36,1.66-0.54,3.49-0.54,4.6c0,0.77,0.03,1.54,0.13,2.02
		c0.19-0.5,0.63-1.57,0.78-1.93l0.43,0.45c-0.42,1.03-0.73,1.61-0.87,2.07c-0.05,0.17-0.08,0.34-0.08,0.48
		c0,0.11,0.02,0.21,0.05,0.32l-0.73,0.13c-0.33-0.97-0.45-2.15-0.45-3.51c0-1.34,0.21-3.21,0.54-4.97L117.18,44.56z M123.68,52.02
		c-0.37,0.02-0.75,0.03-1.12,0.03c-0.73,0-1.41-0.04-1.9-0.11c-1.26-0.18-1.84-0.88-1.84-1.7c0-0.7,0.39-1.3,0.96-1.97l0.66,0.29
		c-0.51,0.53-0.87,1.02-0.87,1.6c0,1.19,1.74,1.19,2.8,1.19c0.43,0,0.89-0.02,1.32-0.05L123.68,52.02z M118.95,45.78
		c1.32-0.03,3.09-0.15,4.45-0.39l0.06,0.71c-1.27,0.21-3.32,0.35-4.49,0.38L118.95,45.78z"/>
	<path class="st0" d="M142.9,47.11h4.25v0.65h-4.05c-0.02,0.06-0.08,0.1-0.2,0.13v2.35c0,0.75-0.37,0.78-2,0.78
		c-0.03-0.19-0.13-0.44-0.22-0.63c0.63,0.02,1.17,0.02,1.34,0.02c0.16-0.01,0.2-0.05,0.2-0.17v-2.47h-4.25v-0.65h1.55v-2.47
		l0.89,0.06c-0.01,0.07-0.06,0.12-0.19,0.14v2.27h2V43.8l0.9,0.06c-0.01,0.07-0.06,0.12-0.2,0.13v1.06h3.26v0.63h-3.26V47.11z
		 M140.95,48.44c-0.03,0.06-0.11,0.1-0.22,0.08c-0.53,0.79-1.36,1.63-2.09,2.18c-0.13-0.12-0.4-0.32-0.56-0.42
		c0.74-0.49,1.55-1.34,2.05-2.14L140.95,48.44z M145.59,49.83c-0.02,0.06-0.08,0.09-0.2,0.1c-0.88,2.06-2.85,3.04-6.23,3.43
		c-0.05-0.2-0.19-0.48-0.34-0.65c3.23-0.3,5.13-1.15,5.92-3.1L145.59,49.83z M146.51,50.69c-0.39-0.62-1.27-1.56-2.05-2.21
		l0.55-0.35c0.79,0.62,1.68,1.52,2.09,2.17L146.51,50.69z"/>
	<path class="st0" d="M164.56,44.21c-0.01,0.11-0.1,0.17-0.29,0.21c-0.01,0.39-0.04,0.78-0.06,1.19c0.84-0.08,1.61-0.24,2.22-0.42
		l0.11,0.68c-0.58,0.17-1.44,0.33-2.38,0.4c-0.07,0.87-0.15,1.67-0.2,2.18c0.02,0.11,0.02,0.22,0.02,0.35
		c0,0.56-0.17,1.19-0.48,1.58c-0.2,0.41-0.31,0.74-0.31,0.99c0,0.76,0.85,0.85,1.95,0.85c2.07,0,2.98-0.29,2.98-1.34
		c0-0.52-0.28-1.2-0.94-1.99c0.19-0.07,0.44-0.16,0.62-0.28c0.74,0.91,1.08,1.74,1.08,2.41c0,0.8-0.48,1.38-1.37,1.61
		c-0.28,0.07-1.02,0.24-2.34,0.24c-0.86,0-2.7,0-2.7-1.3c0-0.24,0.06-0.5,0.19-0.79c-0.15,0.06-0.32,0.09-0.48,0.09
		c-0.62,0-1.23-0.49-1.23-1.48c0-1.21,0.81-1.92,1.66-1.92c0.28,0,0.53,0.11,0.69,0.3l0.11-1.47c-0.83,0.04-2.18,0.02-2.19,0.02
		v-0.65c0.4,0.01,1.97,0,2.22-0.01c0.04-0.56,0.06-1.1,0.06-1.54L164.56,44.21z M163.32,48.89c0-0.47-0.21-0.86-0.66-0.86
		c-0.71,0-1.08,0.59-1.08,1.31c0,0.57,0.3,0.94,0.76,0.94C163.2,50.28,163.32,49.1,163.32,48.89z M169.73,47.63
		c-0.77-0.41-1.85-0.67-2.84-0.81l0.15-0.63c1,0.11,2.13,0.38,2.91,0.77L169.73,47.63z"/>
</g>
<g>
	<path class="st1" d="M18.94,1.5l11.61,34.16h-7.09l-2.35-7.61H9.5l-2.43,7.61H0.2L11.94,1.5H18.94z M19.33,22.46L15.42,9.92h-0.09
		l-4.05,12.54H19.33z"/>
	<path class="st1" d="M53.78,1.5c1.94,0,3.6,0.31,4.96,0.93c1.36,0.62,2.47,1.44,3.33,2.46c0.85,1.02,1.48,2.19,1.87,3.49
		c0.39,1.31,0.59,2.66,0.59,4.07c0,1.37-0.2,2.72-0.59,4.04c-0.39,1.32-1.02,2.5-1.87,3.52c-0.86,1.02-1.97,1.84-3.33,2.46
		c-1.36,0.62-3.02,0.93-4.96,0.93h-7.18v12.25h-6.83V1.5H53.78z M51.91,17.58c0.78,0,1.54-0.06,2.26-0.19
		c0.72-0.13,1.36-0.37,1.91-0.74c0.55-0.37,0.99-0.88,1.33-1.56c0.33-0.67,0.5-1.55,0.5-2.63c0-1.08-0.17-1.96-0.5-2.63
		c-0.33-0.67-0.78-1.19-1.33-1.56c-0.55-0.37-1.19-0.61-1.91-0.74c-0.72-0.13-1.48-0.19-2.26-0.19h-5.31v10.24H51.91z"/>
	<path class="st1" d="M98.54,1.5v6.32h-16.4v7.32h15.05v5.84H82.14v8.37h16.75v6.32H75.32V1.5H98.54z"/>
	<path class="st1" d="M115.25,27.24c0.38,0.8,0.88,1.44,1.5,1.94c0.62,0.5,1.36,0.86,2.2,1.1c0.84,0.24,1.71,0.36,2.61,0.36
		c0.61,0,1.26-0.06,1.96-0.17c0.7-0.11,1.35-0.33,1.96-0.65c0.61-0.32,1.12-0.76,1.52-1.32c0.41-0.56,0.61-1.27,0.61-2.13
		c0-0.92-0.27-1.67-0.81-2.25c-0.54-0.57-1.24-1.05-2.11-1.44c-0.87-0.38-1.86-0.72-2.96-1c-1.1-0.29-2.22-0.61-3.35-0.96
		c-1.16-0.32-2.29-0.71-3.39-1.17c-1.1-0.46-2.09-1.06-2.96-1.79c-0.87-0.73-1.57-1.65-2.11-2.75c-0.54-1.1-0.8-2.43-0.8-4
		c0-1.75,0.34-3.28,1.02-4.57c0.68-1.29,1.57-2.37,2.68-3.23c1.1-0.86,2.35-1.5,3.74-1.91c1.39-0.41,2.78-0.62,4.18-0.62
		c1.62,0,3.18,0.2,4.68,0.6s2.82,1.04,3.98,1.94c1.16,0.89,2.08,2.03,2.76,3.42c0.68,1.39,1.02,3.07,1.02,5.05h-6.61
		c-0.06-1.02-0.25-1.87-0.59-2.54c-0.33-0.67-0.78-1.2-1.33-1.58c-0.55-0.38-1.18-0.65-1.89-0.81c-0.71-0.16-1.49-0.24-2.33-0.24
		c-0.55,0-1.1,0.06-1.65,0.19c-0.55,0.13-1.05,0.35-1.5,0.67c-0.45,0.32-0.82,0.72-1.11,1.2c-0.29,0.48-0.43,1.08-0.43,1.82
		c0,0.67,0.12,1.21,0.35,1.63c0.23,0.41,0.69,0.8,1.37,1.15c0.68,0.35,1.62,0.7,2.83,1.05c1.2,0.35,2.78,0.8,4.72,1.34
		c0.58,0.13,1.38,0.36,2.41,0.69c1.03,0.34,2.05,0.87,3.07,1.6c1.01,0.73,1.89,1.71,2.63,2.94c0.74,1.23,1.11,2.8,1.11,4.71
		c0,1.56-0.28,3.01-0.83,4.35c-0.55,1.34-1.37,2.5-2.46,3.47c-1.09,0.97-2.44,1.73-4.04,2.27c-1.61,0.54-3.47,0.81-5.59,0.81
		c-1.71,0-3.37-0.23-4.98-0.69c-1.61-0.46-3.03-1.19-4.26-2.18c-1.23-0.99-2.21-2.25-2.94-3.78c-0.73-1.53-1.07-3.35-1.04-5.45h6.61
		C114.68,25.47,114.87,26.45,115.25,27.24z"/>
	<path class="st1" d="M142.34,7.82V1.5h25.45v6.32h-9.31v27.85h-6.83V7.82H142.34z"/>
</g>
</svg>
