<?xml version="1.0" encoding="utf-8"?>
<!-- Generator: Adobe Illustrator 25.2.1, SVG Export Plug-In . SVG Version: 6.00 Build 0)  -->
<svg version="1.1" id="レイヤー_1" xmlns="http://www.w3.org/2000/svg" xmlns:xlink="http://www.w3.org/1999/xlink" x="0px"
	 y="0px" width="170px" height="54px" viewBox="0 0 170 54" style="enable-background:new 0 0 170 54;" xml:space="preserve">
<style type="text/css">
	.st0{fill:#FFFFFF;}
</style>
<g>
	<path class="st0" d="M3.7,48.9l-1.2,0.4v3.1c0,0.7-0.3,0.8-1.7,0.8c0-0.2-0.1-0.5-0.2-0.6c0.5,0,0.9,0,1,0c0.1,0,0.2,0,0.2-0.2
		v-2.9C1.4,49.8,1,49.9,0.6,50c0,0.1-0.1,0.1-0.1,0.2l-0.3-0.8c0.5-0.1,1-0.3,1.7-0.5v-2.4H0.3v-0.6h1.5v-2.1l0.9,0
		c0,0.1-0.1,0.1-0.2,0.1v1.9h1.2v0.6H2.5v2.2l1.1-0.3L3.7,48.9z M8.6,48.3l0.5,0.2c0,0-0.1,0.1-0.1,0.1c-0.4,1.2-1,2.1-1.9,2.9
		c0.8,0.6,1.7,1,2.8,1.2c-0.2,0.1-0.4,0.4-0.5,0.6c-1.1-0.3-2.1-0.7-2.8-1.4c-0.9,0.6-1.9,1.1-2.9,1.4c-0.1-0.2-0.2-0.5-0.4-0.6
		c1-0.2,2-0.7,2.8-1.2c-0.7-0.7-1.2-1.4-1.5-2.4l0.5-0.2H4.2v-0.6h4.3L8.6,48.3z M5.4,44.9v0.4c0,0.9-0.3,2-1.4,2.8
		c-0.1-0.1-0.3-0.4-0.5-0.5c1-0.7,1.2-1.5,1.2-2.3v-1h3.4v2.5c0,0.2,0,0.3,0.2,0.3H9c0.2,0,0.2-0.2,0.3-1.3C9.4,45.9,9.7,46,9.8,46
		c-0.1,1.3-0.2,1.6-0.8,1.6H8.3c-0.6,0-0.8-0.2-0.8-0.9v-1.9C7.5,44.9,5.4,44.9,5.4,44.9z M5.2,48.9C5.5,49.7,6,50.4,6.6,51
		c0.7-0.6,1.2-1.3,1.5-2.1H5.2z"/>
	<path class="st0" d="M23.3,46.8c0.8-0.2,1.8-0.5,2.9-0.8l0.1,0.5c-0.9,0.3-1.9,0.6-2.5,0.8c0,0.1-0.1,0.1-0.1,0.2L23.3,46.8z
		 M27.1,52.2c0,0-0.1,0.1-0.2,0.1c-0.8,0.4-2.1,0.8-3.1,1.1c-0.1-0.1-0.3-0.4-0.5-0.5c1-0.2,2.3-0.6,3-1L27.1,52.2z M24.1,44
		c0.7,0.2,1.7,0.5,2.2,0.8L26,45.4c-0.5-0.3-1.4-0.7-2.2-0.9L24.1,44z M24.6,51.7v-4.2h6.7v4.2H24.6z M25.3,48v0.8h5.4V48H25.3z
		 M25.3,49.2v0.8h5.4v-0.8H25.3z M25.3,50.4v0.8h5.4v-0.8H25.3z M29.7,45.1c0.2,0.8,0.8,1.6,3,1.9c-0.1,0.1-0.3,0.4-0.4,0.6
		c-1.8-0.3-2.5-1-2.9-1.8c-0.4,0.8-1.1,1.3-2.7,1.6c0-0.1-0.2-0.4-0.3-0.5c1.7-0.3,2.4-0.8,2.6-1.8h-1.2c-0.3,0.3-0.6,0.6-0.9,0.9
		c-0.1-0.1-0.4-0.3-0.5-0.3c0.8-0.5,1.3-1.3,1.6-1.9l0.8,0.1c0,0.1-0.1,0.1-0.2,0.1c-0.1,0.2-0.2,0.4-0.3,0.5h3.7l0.1,0l0.4,0
		c-0.1,0.4-0.7,1.2-1.1,1.5l-0.5-0.2c0.2-0.2,0.5-0.5,0.7-0.8L29.7,45.1L29.7,45.1z M31.8,53.3c-0.7-0.3-1.8-0.8-2.9-1.1l0.6-0.4
		c1.1,0.3,2.4,0.8,3.1,1.1L31.8,53.3z"/>
	<path class="st0" d="M51.5,47.3c0.2,0.7,0.5,1.3,0.8,1.9c0.7-0.4,1.5-1,2-1.4l0.6,0.6c0,0-0.1,0-0.2,0c-0.5,0.4-1.4,1-2,1.3
		c0.7,1,1.7,1.8,2.9,2.2c-0.2,0.1-0.3,0.4-0.5,0.6c-2.1-0.8-3.4-2.7-4.2-5c-0.3,0.2-0.7,0.5-1.1,0.7c1.4,1,2,2.3,2,3.3
		c0,1.1-0.7,1.8-1.8,1.8c-0.3,0-0.6,0-0.9,0c0-0.2-0.1-0.5-0.2-0.6c0.4,0,0.7,0,1,0c0.3,0,0.5,0,0.8-0.2c0.3-0.2,0.5-0.6,0.5-1
		c0-0.3-0.1-0.6-0.2-0.9c-1.1,1-2.9,1.9-4.4,2.4c-0.1-0.2-0.2-0.4-0.4-0.6c1.5-0.4,3.4-1.4,4.5-2.4c-0.1-0.2-0.3-0.4-0.5-0.6
		c-0.9,0.7-2.3,1.4-3.3,1.8c-0.1-0.2-0.2-0.4-0.4-0.5c1.1-0.3,2.5-1,3.3-1.6c-0.2-0.2-0.4-0.3-0.6-0.5c-0.8,0.4-1.6,0.7-2.4,0.9
		c-0.1-0.1-0.2-0.4-0.3-0.5c1.3-0.3,2.7-0.9,3.7-1.5h-2.4v-0.6h5.8v0.6L51.5,47.3L51.5,47.3z M47.1,45.6V47h-0.7v-2h3.9v-1.2
		l0.9,0.1c0,0.1-0.1,0.1-0.2,0.1v1h4v2h-0.7v-1.4C54.3,45.6,47.1,45.6,47.1,45.6z"/>
	<path class="st0" d="M77,47.4C77,47.4,77,47.4,77,47.4c-0.2,0-0.2,0-0.3-0.1c-3,0.9-5.8,2.2-5.8,3.6c0,1,1.1,1.3,2.7,1.3
		c1.6,0,2.9-0.1,3.6-0.2l0.1,0.8c-0.9,0.1-2.5,0.2-3.7,0.2c-2,0-3.5-0.5-3.5-2c0-1.1,1.1-2,2.7-2.9c-0.3-0.6-0.5-1.8-0.5-4.1
		l1.1,0.1c0,0.1-0.1,0.2-0.3,0.2c0,1.8,0.1,2.9,0.3,3.5c1-0.5,2.1-0.9,3.2-1.2L77,47.4z"/>
	<path class="st0" d="M98.9,49.3h2.5V50H92v-0.7h2.4v-2.7h-2v-0.7h2v-2l0.9,0.1c0,0.1-0.1,0.1-0.2,0.1v1.8h3.1v-2l0.9,0.1
		c0,0.1-0.1,0.1-0.2,0.1v1.8h2.1v0.7h-2.1L98.9,49.3L98.9,49.3z M95.8,50.9c0,0.1-0.1,0.1-0.2,0.1c-0.7,0.8-1.9,1.7-2.9,2.3
		c-0.1-0.2-0.4-0.4-0.6-0.5c1.1-0.6,2.3-1.5,2.8-2.3L95.8,50.9z M95.2,46.6v2.7h3.1v-2.7H95.2z M100.6,53.3
		c-0.6-0.6-1.9-1.6-2.9-2.4l0.6-0.4c1,0.7,2.3,1.7,2.9,2.3L100.6,53.3z"/>
	<path class="st0" d="M117.2,44.6c0,0.1-0.1,0.2-0.3,0.2c-0.4,1.7-0.5,3.5-0.5,4.6c0,0.8,0,1.5,0.1,2c0.2-0.5,0.6-1.6,0.8-1.9
		l0.4,0.5c-0.4,1-0.7,1.6-0.9,2.1c-0.1,0.2-0.1,0.3-0.1,0.5c0,0.1,0,0.2,0.1,0.3l-0.7,0.1c-0.3-1-0.4-2.2-0.4-3.5
		c0-1.3,0.2-3.2,0.5-5L117.2,44.6z M123.7,52c-0.4,0-0.8,0-1.1,0c-0.7,0-1.4,0-1.9-0.1c-1.3-0.2-1.8-0.9-1.8-1.7c0-0.7,0.4-1.3,1-2
		l0.7,0.3c-0.5,0.5-0.9,1-0.9,1.6c0,1.2,1.7,1.2,2.8,1.2c0.4,0,0.9,0,1.3,0L123.7,52z M118.9,45.8c1.3,0,3.1-0.2,4.4-0.4l0.1,0.7
		c-1.3,0.2-3.3,0.3-4.5,0.4L118.9,45.8z"/>
	<path class="st0" d="M142.9,47.1h4.2v0.7h-4.1c0,0.1-0.1,0.1-0.2,0.1v2.3c0,0.8-0.4,0.8-2,0.8c0-0.2-0.1-0.4-0.2-0.6
		c0.6,0,1.2,0,1.3,0c0.2,0,0.2,0,0.2-0.2v-2.5H138v-0.7h1.6v-2.5l0.9,0.1c0,0.1-0.1,0.1-0.2,0.1v2.3h2v-3.3l0.9,0.1
		c0,0.1-0.1,0.1-0.2,0.1v1.1h3.3v0.6h-3.3L142.9,47.1L142.9,47.1z M140.9,48.4c0,0.1-0.1,0.1-0.2,0.1c-0.5,0.8-1.4,1.6-2.1,2.2
		c-0.1-0.1-0.4-0.3-0.6-0.4c0.7-0.5,1.6-1.3,2.1-2.1L140.9,48.4z M145.6,49.8c0,0.1-0.1,0.1-0.2,0.1c-0.9,2.1-2.9,3-6.2,3.4
		c-0.1-0.2-0.2-0.5-0.3-0.7c3.2-0.3,5.1-1.2,5.9-3.1L145.6,49.8z M146.5,50.7c-0.4-0.6-1.3-1.6-2.1-2.2l0.6-0.3
		c0.8,0.6,1.7,1.5,2.1,2.2L146.5,50.7z"/>
	<path class="st0" d="M164.6,44.2c0,0.1-0.1,0.2-0.3,0.2c0,0.4,0,0.8-0.1,1.2c0.8-0.1,1.6-0.2,2.2-0.4l0.1,0.7
		c-0.6,0.2-1.4,0.3-2.4,0.4c-0.1,0.9-0.1,1.7-0.2,2.2c0,0.1,0,0.2,0,0.3c0,0.6-0.2,1.2-0.5,1.6c-0.2,0.4-0.3,0.7-0.3,1
		c0,0.8,0.9,0.8,1.9,0.8c2.1,0,3-0.3,3-1.3c0-0.5-0.3-1.2-0.9-2c0.2-0.1,0.4-0.2,0.6-0.3c0.7,0.9,1.1,1.7,1.1,2.4
		c0,0.8-0.5,1.4-1.4,1.6c-0.3,0.1-1,0.2-2.3,0.2c-0.9,0-2.7,0-2.7-1.3c0-0.2,0.1-0.5,0.2-0.8c-0.1,0.1-0.3,0.1-0.5,0.1
		c-0.6,0-1.2-0.5-1.2-1.5c0-1.2,0.8-1.9,1.7-1.9c0.3,0,0.5,0.1,0.7,0.3l0.1-1.5c-0.8,0-2.2,0-2.2,0v-0.7c0.4,0,2,0,2.2,0
		c0-0.6,0.1-1.1,0.1-1.5L164.6,44.2z M163.3,48.9c0-0.5-0.2-0.9-0.7-0.9c-0.7,0-1.1,0.6-1.1,1.3c0,0.6,0.3,0.9,0.8,0.9
		C163.2,50.3,163.3,49.1,163.3,48.9z M169.7,47.6c-0.8-0.4-1.9-0.7-2.8-0.8l0.1-0.6c1,0.1,2.1,0.4,2.9,0.8L169.7,47.6z"/>
</g>
<g>
	<path class="st0" d="M18.9,1.5l11.6,34.2h-7.1L21.1,28H9.5l-2.4,7.6H0.2L11.9,1.5H18.9z M19.3,22.5L15.4,9.9h-0.1l-4.1,12.5H19.3z"
		/>
	<path class="st0" d="M53.8,1.5c1.9,0,3.6,0.3,5,0.9s2.5,1.4,3.3,2.5c0.8,1,1.5,2.2,1.9,3.5c0.4,1.3,0.6,2.7,0.6,4.1
		c0,1.4-0.2,2.7-0.6,4c-0.4,1.3-1,2.5-1.9,3.5c-0.9,1-2,1.8-3.3,2.5c-1.4,0.6-3,0.9-5,0.9h-7.2v12.2h-6.8V1.5H53.8z M51.9,17.6
		c0.8,0,1.5-0.1,2.3-0.2c0.7-0.1,1.4-0.4,1.9-0.7c0.5-0.4,1-0.9,1.3-1.6c0.3-0.7,0.5-1.6,0.5-2.6s-0.2-2-0.5-2.6s-0.8-1.2-1.3-1.6
		c-0.5-0.4-1.2-0.6-1.9-0.7c-0.7-0.1-1.5-0.2-2.3-0.2h-5.3v10.2H51.9z"/>
	<path class="st0" d="M98.5,1.5v6.3H82.1v7.3h15.1V21H82.1v8.4h16.8v6.3H75.3V1.5H98.5z"/>
	<path class="st0" d="M115.2,27.2c0.4,0.8,0.9,1.4,1.5,1.9s1.4,0.9,2.2,1.1s1.7,0.4,2.6,0.4c0.6,0,1.3-0.1,2-0.2s1.3-0.3,2-0.6
		s1.1-0.8,1.5-1.3c0.4-0.6,0.6-1.3,0.6-2.1c0-0.9-0.3-1.7-0.8-2.2c-0.5-0.6-1.2-1-2.1-1.4c-0.9-0.4-1.9-0.7-3-1
		c-1.1-0.3-2.2-0.6-3.3-1c-1.2-0.3-2.3-0.7-3.4-1.2c-1.1-0.5-2.1-1.1-3-1.8c-0.9-0.7-1.6-1.6-2.1-2.8s-0.8-2.4-0.8-4
		c0-1.8,0.3-3.3,1-4.6s1.6-2.4,2.7-3.2c1.1-0.9,2.3-1.5,3.7-1.9s2.8-0.6,4.2-0.6c1.6,0,3.2,0.2,4.7,0.6s2.8,1,4,1.9
		c1.2,0.9,2.1,2,2.8,3.4s1,3.1,1,5.1h-6.6c-0.1-1-0.2-1.9-0.6-2.5c-0.3-0.7-0.8-1.2-1.3-1.6s-1.2-0.7-1.9-0.8s-1.5-0.2-2.3-0.2
		c-0.6,0-1.1,0.1-1.7,0.2s-1.1,0.3-1.5,0.7s-0.8,0.7-1.1,1.2s-0.4,1.1-0.4,1.8c0,0.7,0.1,1.2,0.3,1.6c0.2,0.4,0.7,0.8,1.4,1.1
		c0.7,0.4,1.6,0.7,2.8,1.1c1.2,0.4,2.8,0.8,4.7,1.3c0.6,0.1,1.4,0.4,2.4,0.7c1,0.3,2.1,0.9,3.1,1.6c1,0.7,1.9,1.7,2.6,2.9
		s1.1,2.8,1.1,4.7c0,1.6-0.3,3-0.8,4.4s-1.4,2.5-2.5,3.5c-1.1,1-2.4,1.7-4,2.3c-1.6,0.5-3.5,0.8-5.6,0.8c-1.7,0-3.4-0.2-5-0.7
		s-3-1.2-4.3-2.2s-2.2-2.2-2.9-3.8s-1.1-3.4-1-5.4h6.6C114.7,25.5,114.9,26.5,115.2,27.2z"/>
	<path class="st0" d="M142.3,7.8V1.5h25.4v6.3h-9.3v27.9h-6.8V7.8H142.3z"/>
</g>
</svg>
